<svg width="33" height="32" viewBox="0 0 33 32" fill="none" xmlns="http://www.w3.org/2000/svg">
<g id="Facebook">
<path id="Vector" d="M16.375 0C7.33131 0 0 7.16342 0 16C0 24.8366 7.33131 32 16.375 32C25.4187 32 32.75 24.8366 32.75 16C32.75 7.16342 25.4187 0 16.375 0ZM22.6221 8.14813L20.3573 8.14911C18.5812 8.14911 18.2378 8.97375 18.2378 10.1837V12.8517H22.473L22.471 17.0305H18.2381V27.7544H13.8207V17.0305H10.1279V12.8517H13.8207V9.7699C13.8207 6.19343 16.057 4.24561 19.322 4.24561L22.6225 4.25052V8.14813H22.6221Z" fill="#05B6C7"/>
</g>
</svg>
