<svg width="17" height="33" viewBox="0 0 17 33" fill="none" xmlns="http://www.w3.org/2000/svg">
<path d="M8.50205 7.60547C3.85262 7.60547 0.0803223 11.3756 0.0803223 16.0289C0.0803223 20.6823 3.84965 24.4524 8.50205 24.4524C13.1545 24.4524 16.9238 20.6823 16.9238 16.0289C16.9238 11.3756 13.1545 7.60547 8.50205 7.60547ZM8.50205 20.1102C6.24697 20.1102 4.42158 18.2815 4.42158 16.0289C4.42158 13.7763 6.24994 11.9476 8.50205 11.9476C10.7542 11.9476 12.5825 13.7763 12.5825 16.0289C12.5825 18.2815 10.7542 20.1102 8.50205 20.1102Z" fill="#E4E5E6"/>
<path d="M8.50199 32.0547C8.36272 32.0547 8.22937 31.9984 8.13158 31.9006L2.99024 26.7582C2.80947 26.5774 2.78577 26.2899 2.93393 26.0794C3.03468 25.9372 3.1947 25.8601 3.36065 25.8601C3.44066 25.8601 3.52067 25.8779 3.59475 25.9164C5.13271 26.6811 6.78327 27.0694 8.50199 27.0694C10.2207 27.0694 11.8713 26.6811 13.4092 25.9164C13.4833 25.8779 13.5633 25.8601 13.6433 25.8601C13.8063 25.8601 13.9693 25.9372 14.0701 26.0794C14.2212 26.2869 14.1975 26.5744 14.0138 26.7582L8.87241 31.9006C8.77462 31.9984 8.64127 32.0547 8.50199 32.0547Z" fill="#05B6C7"/>
<path d="M13.6404 6.19162C13.5604 6.19162 13.4804 6.17384 13.4063 6.13531C11.8713 5.37062 10.2178 4.98235 8.49906 4.98235C6.78034 4.98235 5.12977 5.37062 3.59181 6.13531C3.51773 6.17384 3.43772 6.19162 3.35771 6.19162C3.19473 6.19162 3.03175 6.11456 2.931 5.97229C2.77987 5.76482 2.80357 5.47732 2.9873 5.29356L8.1316 0.154124C8.22939 0.0563144 8.36274 0 8.50202 0C8.64129 0 8.77464 0.0563144 8.87243 0.154124L14.0138 5.29652C14.1945 5.47732 14.2182 5.76482 14.0701 5.97526C13.9693 6.11753 13.8093 6.19459 13.6434 6.19459L13.6404 6.19162Z" fill="#05B6C7"/>
</svg>
