<svg width="33" height="32" viewBox="0 0 33 32" fill="none" xmlns="http://www.w3.org/2000/svg">
<g id="Group 3271">
<g id="Group">
<path id="Vector" d="M17.8646 32H15.6158C15.2573 31.9537 14.8982 31.9124 14.5403 31.8598C11.3974 31.3984 8.60744 30.1514 6.22168 28.048C3.42045 25.5783 1.66539 22.5033 0.9984 18.8211C0.897663 18.2602 0.831966 17.6936 0.75 17.1296C0.75 16.3796 0.75 15.6303 0.75 14.8803C0.775653 14.6863 0.805061 14.4922 0.827586 14.2969C1.12416 11.7358 1.92943 9.35071 3.38416 7.216C6.38749 2.80759 10.5659 0.38365 15.8867 0.0337069C19.0434 -0.173505 22.0048 0.579592 24.7584 2.15653C30.471 5.42747 33.6508 12.149 32.5252 18.6283C31.8988 22.2329 30.2508 25.2935 27.5634 27.775C25.2859 29.8784 22.6111 31.2093 19.5546 31.7521C18.9946 31.8516 18.4283 31.918 17.8652 32H17.8646ZM25.8609 16.0065C25.8959 16.0065 25.931 16.0053 25.966 16.0053C25.9116 14.5078 25.8866 13.0085 25.7915 11.5142C25.7283 10.5245 25.3898 9.60675 24.7716 8.81109C23.7092 7.44324 22.235 6.92052 20.5826 6.89235C18.0235 6.84915 15.4632 6.85917 12.9034 6.88984C11.7009 6.90424 10.5565 7.19847 9.57476 7.95157C8.19011 9.01329 7.65827 10.4944 7.63074 12.1603C7.58756 14.7201 7.5982 17.2817 7.62886 19.8415C7.64325 21.0447 7.9367 22.1903 8.68941 23.1719C9.75121 24.5554 11.2316 25.0888 12.8972 25.1169C15.4563 25.1608 18.0166 25.1501 20.5763 25.1188C21.7795 25.1044 22.9233 24.8083 23.9044 24.0546C25.2771 23.0004 25.794 21.5324 25.8521 19.8778C25.8972 18.5888 25.8609 17.2967 25.8609 16.0059V16.0065Z" fill="#05B6C7"/>
<path id="Vector_2" d="M9.16336 16.0076C9.21279 14.5716 9.22968 13.1348 9.31916 11.7025C9.42991 9.93903 10.6688 8.64505 12.427 8.59122C15.1387 8.50796 17.8549 8.52486 20.5685 8.533C21.3512 8.5355 22.1208 8.70953 22.7853 9.1684C23.6725 9.78065 24.123 10.6746 24.1562 11.7119C24.2307 14.0094 24.2438 16.3094 24.245 18.6081C24.245 19.3631 24.21 20.135 24.0517 20.8693C23.7226 22.4005 22.6032 23.3683 21.0377 23.4234C18.7208 23.5048 16.4007 23.5061 14.0813 23.5117C13.3774 23.5136 12.661 23.4804 11.9708 23.3521C10.4185 23.0641 9.41489 21.9091 9.31791 20.3121C9.23093 18.8798 9.21154 17.4431 9.16211 16.0076H9.16336ZM16.7267 11.3037C14.1151 11.3106 12.0378 13.3971 12.0403 16.0108C12.0434 18.6225 14.1276 20.7053 16.7392 20.7059C19.3634 20.7065 21.4507 18.6094 21.4407 15.9826C21.4307 13.3709 19.3409 11.2969 16.7267 11.3037ZM21.6428 12.1964C22.241 12.1964 22.7353 11.7056 22.739 11.1084C22.7428 10.5118 22.2528 10.0123 21.6572 10.0048C21.0465 9.99662 20.5441 10.4974 20.5478 11.1097C20.5516 11.71 21.0421 12.1964 21.6428 12.1964Z" fill="#05B6C7"/>
<path id="Vector_3" d="M9.16336 16.0076C9.21279 14.5716 9.22968 13.1348 9.31916 11.7025C9.42991 9.93903 10.6688 8.64505 12.427 8.59122C15.1387 8.50796 17.8549 8.52486 20.5685 8.533C21.3512 8.5355 22.1208 8.70953 22.7853 9.1684C23.6725 9.78065 24.123 10.6746 24.1562 11.7119C24.2307 14.0094 24.2438 16.3094 24.245 18.6081C24.245 19.3631 24.21 20.135 24.0517 20.8693C23.7226 22.4005 22.6032 23.3683 21.0377 23.4234C18.7208 23.5048 16.4007 23.5061 14.0813 23.5117C13.3774 23.5136 12.661 23.4804 11.9708 23.3521C10.4185 23.0641 9.41489 21.9091 9.31791 20.3121C9.23093 18.8798 9.21154 17.4431 9.16211 16.0076H9.16336ZM16.7267 11.3037C14.1151 11.3106 12.0378 13.3971 12.0403 16.0108C12.0434 18.6225 14.1276 20.7053 16.7392 20.7059C19.3634 20.7065 21.4507 18.6094 21.4407 15.9826C21.4307 13.3709 19.3409 11.2969 16.7267 11.3037ZM21.6428 12.1964C22.241 12.1964 22.7353 11.7056 22.739 11.1084C22.7428 10.5118 22.2528 10.0123 21.6572 10.0048C21.0465 9.99662 20.5441 10.4974 20.5478 11.1097C20.5516 11.71 21.0421 12.1964 21.6428 12.1964Z" fill="#05B6C7"/>
<path id="Vector_4" d="M19.8003 16.0281C19.7953 17.7271 18.4213 19.0737 16.7019 19.0649C15.0231 19.0562 13.6766 17.6821 13.6817 15.9812C13.6867 14.2834 15.0613 12.9362 16.7801 12.9444C18.4607 12.9525 19.8053 14.3254 19.8003 16.0275V16.0281Z" fill="#05B6C7"/>
</g>
</g>
</svg>
