<svg width="33" height="32" viewBox="0 0 33 32" fill="none" xmlns="http://www.w3.org/2000/svg">
<g id="Group 3270">
<path id="Vector" d="M17.8652 32H15.6164C15.2579 31.9537 14.8988 31.9124 14.5409 31.8598C11.398 31.3984 8.60807 30.1513 6.2223 28.0479C3.4217 25.5782 1.66601 22.5031 0.999024 18.8208C0.897662 18.2605 0.831966 17.6934 0.75 17.1299C0.75 16.38 0.75 15.6306 0.75 14.8806C0.775653 14.6865 0.80506 14.4925 0.827585 14.2972C1.12416 11.7361 1.92943 9.3509 3.38416 7.21614C6.38749 2.80765 10.5659 0.383658 15.8867 0.0337074C19.0434 -0.173508 22.0048 0.579607 24.7584 2.15657C30.471 5.42758 33.6508 12.1492 32.5252 18.628C31.8988 22.2327 30.2508 25.2934 27.5634 27.7749C25.2859 29.8784 22.6111 31.2093 19.5546 31.7521C18.9946 31.8516 18.4283 31.918 17.8652 32ZM26.1231 24.1765C26.1231 24.0294 26.1231 23.9067 26.1231 23.7834C26.1231 21.7638 26.1275 19.7436 26.1199 17.724C26.1181 17.2464 26.1068 16.765 26.0467 16.2917C25.7883 14.2439 24.6439 12.4328 22.0992 12.2206C20.5632 12.0923 19.2686 12.5518 18.3432 13.8495C18.2944 13.9178 18.235 13.9779 18.1211 14.1112V12.5073H14.2693V24.1684H18.1299C18.1299 24.0219 18.1299 23.8973 18.1299 23.7734C18.1299 21.7431 18.133 19.7129 18.1286 17.6827C18.1274 17.0598 18.2581 16.4845 18.6786 16.0043C19.2448 15.3576 19.9581 15.1373 20.7884 15.3257C21.5468 15.4973 21.9347 16.0388 22.1068 16.7531C22.1793 17.0536 22.2288 17.3678 22.2306 17.6765C22.2425 19.7167 22.2394 21.7575 22.2407 23.7984C22.2407 23.9198 22.2407 24.0413 22.2407 24.1771H26.1231V24.1765ZM8.22577 12.4986V24.1753H12.0588V12.4986H8.22577ZM10.2486 6.82049C8.72445 6.8136 7.71458 7.96487 8.02305 9.28579C8.21826 10.1215 8.75573 10.6374 9.57789 10.8002C10.482 10.9792 11.3342 10.8352 11.938 10.0546C12.4498 9.39285 12.473 8.64725 12.1113 7.91166C11.724 7.12412 11.012 6.85868 10.2493 6.82112L10.2486 6.82049Z" fill="#05B6C7"/>
</g>
</svg>
