<svg width="126" height="46" viewBox="0 0 126 46" fill="none" xmlns="http://www.w3.org/2000/svg">
<g clip-path="url(#clip0_1033_4)">
<path d="M1.95877 41.0828L0.213379 45.9347H0.989766L1.43426 44.6513H3.33078L3.77528 45.9347H4.55167L2.80628 41.0828H1.96173H1.95877ZM1.64762 44.0348L2.36474 41.963H2.40327L3.11742 44.0348H1.64762Z" fill="#383E42"/>
<path d="M8.02764 41.3732C7.68686 41.1806 7.27792 41.0828 6.80379 41.0828H5.18286V45.9347H6.75342C7.24533 45.9347 7.66612 45.8369 8.01282 45.6413C8.35953 45.4457 8.62623 45.167 8.80995 44.8054C8.99368 44.4409 9.08554 44.0082 9.08554 43.5013C9.08554 42.9945 8.99368 42.5647 8.81292 42.2031C8.62919 41.8415 8.36842 41.5659 8.02764 41.3703V41.3732ZM8.1847 44.4764C8.0632 44.7432 7.87948 44.9447 7.63648 45.0841C7.39053 45.2234 7.08531 45.2945 6.71489 45.2945H5.91776V41.723H6.76231C7.11494 41.723 7.41127 41.7911 7.6513 41.9304C7.88836 42.0668 8.06913 42.2683 8.19062 42.5351C8.31212 42.7989 8.37138 43.1219 8.37138 43.5043C8.37138 43.8866 8.30915 44.2127 8.18766 44.4794L8.1847 44.4764Z" fill="#383E42"/>
<path d="M11.065 41.0828L9.31958 45.9347H10.096L10.5405 44.6513H12.437L12.8815 45.9347H13.6579L11.9125 41.0828H11.0679H11.065ZM10.7538 44.0348L11.4709 41.963H11.5095L12.2236 44.0348H10.7538Z" fill="#383E42"/>
<path d="M16.956 41.2873C16.7071 41.151 16.396 41.0798 16.0167 41.0798H14.2891V45.9318H15.021V44.2246H16.0167C16.393 44.2246 16.7042 44.1564 16.9531 44.0171C17.202 43.8778 17.3887 43.691 17.5131 43.4539C17.6376 43.2168 17.6998 42.9471 17.6998 42.6507C17.6998 42.3543 17.6376 42.0876 17.5161 41.8475C17.3916 41.6104 17.2079 41.4236 16.959 41.2843L16.956 41.2873ZM16.8553 43.1427C16.7871 43.288 16.6775 43.4006 16.5293 43.4836C16.3812 43.5666 16.1885 43.6081 15.9485 43.6081H15.021V41.7111H15.9396C16.1826 41.7111 16.3782 41.7526 16.5293 41.8327C16.6775 41.9127 16.7871 42.0253 16.8583 42.1676C16.9294 42.3099 16.962 42.4729 16.962 42.6566C16.962 42.8404 16.9264 43.0034 16.8583 43.1457L16.8553 43.1427Z" fill="#383E42"/>
<path d="M18.2454 41.7111H19.7566V45.9347H20.4856V41.7111H21.9999V41.0828H18.2454V41.7111Z" fill="#383E42"/>
<path d="M23.4932 41.0828H22.7612V45.9347H23.4932V41.0828Z" fill="#383E42"/>
<path d="M26.3203 45.0337H26.264L24.9157 41.0828H24.1245L25.8699 45.9347H26.7144L28.4598 41.0828H27.6686L26.3203 45.0337Z" fill="#383E42"/>
<path d="M29.8257 43.8185H31.9741V43.1901H29.8257V41.7111H32.1341V41.0828H29.0938V45.9347H32.1637V45.3034H29.8257V43.8185Z" fill="#383E42"/>
<path d="M36.5081 42.6061C36.351 42.5113 36.1762 42.4639 35.9835 42.4639C35.7909 42.4639 35.6191 42.5113 35.459 42.6061C35.302 42.701 35.1746 42.8255 35.0797 42.9826C34.9849 43.1396 34.9375 43.3145 34.9375 43.5072C34.9375 43.6998 34.9849 43.8717 35.0797 44.0318C35.1746 44.1889 35.299 44.3163 35.459 44.4082C35.6161 44.503 35.7909 44.5505 35.9835 44.5505C36.1762 44.5505 36.351 44.503 36.5081 44.4082C36.6651 44.3134 36.7896 44.1889 36.8844 44.0318C36.9792 43.8747 37.0266 43.6998 37.0266 43.5072C37.0266 43.3145 36.9792 43.1396 36.8844 42.9826C36.7896 42.8255 36.6651 42.701 36.5081 42.6061Z" fill="#383E42"/>
<path d="M41.196 41.8949C41.4152 41.7556 41.6671 41.6845 41.9457 41.6845C42.0998 41.6845 42.2479 41.7052 42.3843 41.7497C42.5235 41.7912 42.648 41.8564 42.7606 41.9394C42.8732 42.0223 42.968 42.1261 43.0451 42.2446C43.1221 42.3662 43.1755 42.5025 43.2051 42.6626H43.943C43.9015 42.4017 43.8215 42.1705 43.7059 41.966C43.5903 41.7645 43.4422 41.5896 43.2644 41.4503C43.0866 41.308 42.8851 41.2013 42.6628 41.1272C42.4406 41.0531 42.1976 41.0176 41.9427 41.0176C41.5249 41.0176 41.1515 41.1183 40.8226 41.3169C40.4937 41.5155 40.2359 41.803 40.0462 42.1735C39.8565 42.547 39.7617 42.9915 39.7617 43.5073C39.7617 44.023 39.8565 44.4676 40.0462 44.841C40.2359 45.2145 40.4937 45.499 40.8226 45.7006C41.1515 45.8992 41.5249 45.9999 41.9457 45.9999C42.2124 45.9999 42.4583 45.9614 42.6835 45.8814C42.9088 45.8013 43.1103 45.6917 43.2851 45.5464C43.4599 45.4012 43.6051 45.2293 43.7177 45.0307C43.8303 44.8321 43.9074 44.6128 43.9459 44.3727H43.2081C43.1784 44.5239 43.1251 44.6632 43.0451 44.7818C42.968 44.9003 42.8702 45.0011 42.7606 45.0841C42.648 45.1671 42.5235 45.2293 42.3843 45.2708C42.245 45.3123 42.0998 45.333 41.9457 45.333C41.6701 45.333 41.4212 45.2649 41.1989 45.1256C40.9767 44.9863 40.8048 44.7818 40.6774 44.5091C40.55 44.2364 40.4877 43.9044 40.4877 43.5102C40.4877 43.116 40.55 42.787 40.6774 42.5144C40.8048 42.2417 40.9767 42.0372 41.1989 41.8949H41.196Z" fill="#383E42"/>
<path d="M47.4159 43.9104C47.6648 43.7859 47.8515 43.611 47.976 43.3858C48.1004 43.1605 48.1627 42.8997 48.1627 42.6033C48.1627 42.3069 48.1004 42.0401 47.9789 41.8119C47.8545 41.5837 47.6707 41.4059 47.4218 41.2754C47.1729 41.145 46.8618 41.0798 46.4854 41.0798H44.7578V45.9318H45.4898V44.0941H46.4854C46.5002 44.0941 46.5151 44.0941 46.5328 44.0941L47.5196 45.9318H48.3523L47.2766 43.9697C47.327 43.9519 47.3774 43.9311 47.4218 43.9104H47.4159ZM45.4838 41.7082H46.4025C46.6454 41.7082 46.8381 41.7438 46.9892 41.8149C47.1374 41.886 47.247 41.9898 47.3181 42.1231C47.3892 42.2565 47.4248 42.4166 47.4248 42.6003C47.4248 42.7841 47.3892 42.9382 47.3211 43.0686C47.2529 43.199 47.1433 43.2968 46.9922 43.365C46.844 43.4332 46.6514 43.4658 46.4143 43.4658H45.4868V41.7082H45.4838Z" fill="#383E42"/>
<path d="M49.7185 43.8185H51.8699V43.1901H49.7185V41.7111H52.0269V41.0828H48.9866V45.9347H52.0566V45.3034H49.7185V43.8185Z" fill="#383E42"/>
<path d="M54.3203 41.0828L52.575 45.9347H53.3513L53.7958 44.6513H55.6924L56.1369 45.9347H56.9132L55.1678 41.0828H54.3233H54.3203ZM54.0092 44.0348L54.7263 41.963H54.7648L55.479 44.0348H54.0092Z" fill="#383E42"/>
<path d="M56.7266 41.7111H58.2379V45.9347H58.9668V41.7111H60.4811V41.0828H56.7266V41.7111Z" fill="#383E42"/>
<path d="M61.9717 41.0828H61.2397V45.9347H61.9717V41.0828Z" fill="#383E42"/>
<path d="M64.7988 45.0337H64.7455L63.3942 41.0828H62.603L64.3484 45.9347H65.1959L66.9413 41.0828H66.1501L64.7988 45.0337Z" fill="#383E42"/>
<path d="M68.3044 43.8185H70.4558V43.1901H68.3044V41.7111H70.6129V41.0828H67.5725V45.9347H70.6425V45.3034H68.3044V43.8185Z" fill="#383E42"/>
<path d="M74.9863 42.6061C74.8292 42.5113 74.6544 42.4639 74.4618 42.4639C74.2692 42.4639 74.0973 42.5113 73.9373 42.6061C73.7802 42.701 73.6528 42.8255 73.5609 42.9826C73.4661 43.1396 73.4187 43.3145 73.4187 43.5072C73.4187 43.6998 73.4661 43.8717 73.5609 44.0318C73.6558 44.1889 73.7802 44.3163 73.9373 44.4112C74.0943 44.506 74.2692 44.5534 74.4618 44.5534C74.6544 44.5534 74.8292 44.506 74.9863 44.4112C75.1434 44.3163 75.2678 44.1918 75.3626 44.0318C75.4575 43.8747 75.5049 43.6998 75.5049 43.5072C75.5049 43.3145 75.4575 43.1396 75.3626 42.9826C75.2678 42.8255 75.1434 42.701 74.9863 42.6061Z" fill="#383E42"/>
<path d="M79.1265 41.0828H78.3945V45.9347H79.1265V41.0828Z" fill="#383E42"/>
<path d="M83.3135 44.6454H83.2691L80.8006 41.0828H80.125V45.9347H80.8569V42.375H80.9014L83.3669 45.9347H84.0395V41.0828H83.3135V44.6454Z" fill="#383E42"/>
<path d="M88.2296 44.6454H88.1851L85.7167 41.0828H85.0381V45.9347H85.77V42.375H85.8145L88.2799 45.9347H88.9526V41.0828H88.2296V44.6454Z" fill="#383E42"/>
<path d="M93.1044 41.314C92.7755 41.1154 92.4021 41.0146 91.9843 41.0146C91.5665 41.0146 91.1901 41.1154 90.8612 41.314C90.5323 41.5126 90.2715 41.8001 90.0818 42.1706C89.8922 42.544 89.7974 42.9886 89.7974 43.5043C89.7974 44.0201 89.8922 44.4646 90.0818 44.8381C90.2715 45.2116 90.5293 45.4961 90.8612 45.6976C91.1901 45.8962 91.5665 45.997 91.9843 45.997C92.4021 45.997 92.7755 45.8962 93.1044 45.6976C93.4333 45.4991 93.6941 45.2116 93.8838 44.8411C94.0734 44.4676 94.1682 44.023 94.1682 43.5073C94.1682 42.9916 94.0734 42.544 93.8838 42.1735C93.6941 41.8001 93.4333 41.5155 93.1044 41.317V41.314ZM93.2526 44.5061C93.1252 44.7759 92.9533 44.9833 92.731 45.1226C92.5118 45.2619 92.2628 45.3331 91.9843 45.3331C91.7057 45.3331 91.4539 45.2649 91.2346 45.1226C91.0153 44.9833 90.8405 44.7788 90.716 44.5061C90.5886 44.2364 90.5263 43.9015 90.5263 43.5073C90.5263 43.1131 90.5886 42.7811 90.716 42.5085C90.8434 42.2387 91.0153 42.0313 91.2346 41.892C91.4539 41.7527 91.7028 41.6815 91.9843 41.6815C92.2658 41.6815 92.5118 41.7527 92.731 41.892C92.9503 42.0313 93.1252 42.2358 93.2526 42.5085C93.38 42.7782 93.4422 43.1131 93.4422 43.5073C93.4422 43.9015 93.38 44.2364 93.2526 44.5061Z" fill="#383E42"/>
<path d="M97.9463 41.0828L96.595 45.0337H96.5416L95.1904 41.0828H94.3992L96.1446 45.9347H96.9921L98.7375 41.0828H97.9463Z" fill="#383E42"/>
<path d="M100.255 41.0828L98.5093 45.9347H99.2857L99.7302 44.6513H101.627L102.071 45.9347H102.848L101.102 41.0828H100.258H100.255ZM99.9435 44.0348L100.661 41.963H100.699L101.413 44.0348H99.9435Z" fill="#383E42"/>
<path d="M102.661 41.7111H104.172V45.9347H104.901V41.7111H106.415V41.0828H102.661V41.7111Z" fill="#383E42"/>
<path d="M107.909 41.0828H107.177V45.9347H107.909V41.0828Z" fill="#383E42"/>
<path d="M110.736 45.0337H110.68L109.331 41.0828H108.54L110.286 45.9347H111.13L112.876 41.0828H112.084L110.736 45.0337Z" fill="#383E42"/>
<path d="M114.242 45.3034V43.8185H116.39V43.1901H114.242V41.7111H116.55V41.0828H113.51V45.9347H116.577V45.3034H114.242Z" fill="#383E42"/>
<path d="M0 0.477295H8.12836C9.35814 0.477295 10.4931 0.699589 11.5302 1.14121C12.5674 1.58284 13.4623 2.18451 14.218 2.94031C14.9736 3.69611 15.5663 4.59121 15.9989 5.62858C16.4316 6.66595 16.6479 7.76557 16.6479 8.93335C16.6479 10.1011 16.4316 11.2007 15.9989 12.2381C15.5663 13.2755 14.9736 14.1706 14.218 14.9264C13.4623 15.6822 12.5615 16.2809 11.5125 16.7255C10.4635 17.1671 9.32554 17.3894 8.09577 17.3894H4.50127V24.1264H0V0.480259V0.477295ZM4.50127 4.65642V13.2073H7.80536C8.45433 13.2073 9.04106 13.0947 9.5715 12.8665C10.099 12.6412 10.5553 12.333 10.9317 11.9447C11.308 11.5564 11.6014 11.1029 11.8058 10.5843C12.0103 10.0656 12.114 9.51428 12.114 8.93335C12.114 8.35242 12.0103 7.79817 11.8058 7.28245C11.6014 6.76376 11.308 6.31028 10.9317 5.92201C10.5524 5.53374 10.099 5.22549 9.5715 5.00023C9.04106 4.77201 8.45433 4.65938 7.80536 4.65938H4.50127V4.65642Z" fill="#383E42"/>
<path d="M25.3068 24.4494C24.4445 24.4494 23.5525 24.2775 22.6339 23.9308C21.7153 23.5869 20.8796 23.0683 20.124 22.3747C19.3684 21.6841 18.7431 20.8098 18.2453 19.7516C17.7474 18.6935 17.5015 17.4516 17.5015 16.026C17.5015 14.6003 17.7385 13.3585 18.2127 12.3003C18.6868 11.2422 19.3032 10.3619 20.0588 9.6595C20.8144 8.95705 21.662 8.43836 22.6013 8.10344C23.5407 7.76852 24.4623 7.60254 25.3691 7.60254C26.427 7.60254 27.3604 7.78037 28.1694 8.13604C28.9784 8.49171 29.654 8.95112 30.1933 9.51427V7.92561H34.6294V24.1234H30.1933V22.3184C30.1933 22.3184 30.1904 22.3125 30.1874 22.3184C29.6481 22.9408 28.9636 23.4506 28.1368 23.8507C27.3041 24.2509 26.3618 24.4494 25.3039 24.4494H25.3068ZM26.181 20.3681C26.7855 20.3681 27.3426 20.2555 27.8493 20.0273C28.3561 19.7991 28.7946 19.4878 29.1621 19.0877C29.5295 18.6876 29.814 18.2252 30.0215 17.6947C30.2259 17.1671 30.3296 16.598 30.3296 15.9934C30.3296 15.3887 30.2259 14.8226 30.0215 14.2921C29.817 13.7645 29.5295 13.3051 29.1621 12.9139C28.7946 12.5256 28.3561 12.2174 27.8493 11.9921C27.3426 11.7668 26.7855 11.6513 26.181 11.6513C25.5765 11.6513 25.0105 11.7609 24.4801 11.9743C23.9496 12.1907 23.4933 12.493 23.1051 12.8813C22.7169 13.2695 22.4087 13.729 22.1835 14.2595C21.9583 14.79 21.8427 15.365 21.8427 15.9934C21.8427 16.6217 21.9553 17.1967 22.1835 17.7273C22.4087 18.2578 22.7169 18.7143 23.1051 19.1055C23.4933 19.4938 23.9526 19.802 24.4801 20.0273C25.0075 20.2555 25.5765 20.3681 26.181 20.3681Z" fill="#383E42"/>
<path d="M83.8528 0.477295H88.2889V24.1234H83.8528V0.477295Z" fill="#383E42"/>
<path d="M98.1301 24.4494C97.2677 24.4494 96.3758 24.2775 95.4572 23.9308C94.5385 23.5869 93.7029 23.0683 92.9472 22.3747C92.1916 21.6841 91.5663 20.8098 91.0685 19.7516C90.5707 18.6935 90.3247 17.4516 90.3247 16.026C90.3247 14.6003 90.5618 13.3585 91.0359 12.3003C91.51 11.2422 92.1264 10.3619 92.882 9.6595C93.6377 8.95705 94.4852 8.43836 95.4246 8.10344C96.3639 7.76852 97.2855 7.60254 98.1923 7.60254C99.2502 7.60254 100.184 7.78037 100.993 8.13604C101.802 8.49171 102.477 8.95112 103.017 9.51427V7.92561H107.453V24.1234H103.017V22.3184C103.017 22.3184 103.014 22.3125 103.011 22.3184C102.471 22.9408 101.787 23.4506 100.96 23.8507C100.127 24.2509 99.185 24.4494 98.1271 24.4494H98.1301ZM99.0042 20.3681C99.6088 20.3681 100.166 20.2555 100.673 20.0273C101.179 19.7991 101.618 19.4878 101.985 19.0877C102.353 18.6876 102.637 18.2252 102.845 17.6947C103.049 17.1671 103.153 16.598 103.153 15.9934C103.153 15.3887 103.049 14.8226 102.845 14.2921C102.64 13.7645 102.353 13.3051 101.985 12.9139C101.618 12.5256 101.179 12.2174 100.673 11.9921C100.166 11.7668 99.6088 11.6513 99.0042 11.6513C98.3997 11.6513 97.8337 11.7609 97.3033 11.9743C96.7729 12.1907 96.3165 12.493 95.9283 12.8813C95.5401 13.2695 95.2319 13.729 95.0067 14.2595C94.7815 14.79 94.666 15.365 94.666 15.9934C94.666 16.6217 94.7786 17.1967 95.0067 17.7273C95.2319 18.2578 95.5401 18.7143 95.9283 19.1055C96.3165 19.4967 96.7758 19.802 97.3033 20.0273C97.8308 20.2555 98.3997 20.3681 99.0042 20.3681Z" fill="#383E42"/>
<path d="M115.474 23.4122L109.029 7.92871H113.693L117.676 17.9053L121.401 7.92871H126L116.609 31.6074H112.173L115.477 23.4122H115.474Z" fill="#383E42"/>
<path d="M65.7855 7.92871H60.6916L54.0479 16.0291L60.6916 24.1265H65.7855L59.1447 16.0291L65.7855 7.92871Z" fill="#383E42"/>
<path d="M54.0479 0.477295H49.6118V24.1234H54.0479V0.477295Z" fill="#383E42"/>
<path d="M73.5021 7.60547C68.8526 7.60547 65.0803 11.3756 65.0803 16.0289C65.0803 20.6823 68.8497 24.4524 73.5021 24.4524C78.1545 24.4524 81.9238 20.6823 81.9238 16.0289C81.9238 11.3756 78.1545 7.60547 73.5021 7.60547ZM73.5021 20.1102C71.247 20.1102 69.4216 18.2815 69.4216 16.0289C69.4216 13.7763 71.2499 11.9476 73.5021 11.9476C75.7542 11.9476 77.5825 13.7763 77.5825 16.0289C77.5825 18.2815 75.7542 20.1102 73.5021 20.1102Z" fill="#383E42"/>
<path d="M45.9847 7.92871C44.8823 7.92871 43.9667 8.1599 43.2318 8.62523C42.4969 9.09057 41.925 9.74263 41.516 10.5844V7.92871H37.1125V24.1265H41.5486V15.2674C41.5486 13.5957 42.9029 12.2382 44.5771 12.2382H47.7686V7.92871H45.9877H45.9847Z" fill="#383E42"/>
<path d="M73.502 32.0547C73.3627 32.0547 73.2294 31.9984 73.1316 31.9006L67.9902 26.7582C67.8095 26.5774 67.7858 26.2899 67.9339 26.0794C68.0347 25.9372 68.1947 25.8601 68.3606 25.8601C68.4407 25.8601 68.5207 25.8779 68.5947 25.9164C70.1327 26.6811 71.7833 27.0694 73.502 27.0694C75.2207 27.0694 76.8713 26.6811 78.4092 25.9164C78.4833 25.8779 78.5633 25.8601 78.6433 25.8601C78.8063 25.8601 78.9693 25.9372 79.0701 26.0794C79.2212 26.2869 79.1975 26.5744 79.0138 26.7582L73.8724 31.9006C73.7746 31.9984 73.6413 32.0547 73.502 32.0547Z" fill="#05B6C7"/>
<path d="M78.6404 6.19162C78.5604 6.19162 78.4804 6.17384 78.4063 6.13531C76.8713 5.37062 75.2178 4.98235 73.4991 4.98235C71.7803 4.98235 70.1298 5.37062 68.5918 6.13531C68.5177 6.17384 68.4377 6.19162 68.3577 6.19162C68.1947 6.19162 68.0317 6.11456 67.931 5.97229C67.7799 5.76482 67.8036 5.47732 67.9873 5.29356L73.1316 0.154124C73.2294 0.0563144 73.3627 0 73.502 0C73.6413 0 73.7746 0.0563144 73.8724 0.154124L79.0138 5.29652C79.1945 5.47732 79.2182 5.76482 79.0701 5.97526C78.9693 6.11753 78.8093 6.19459 78.6434 6.19459L78.6404 6.19162Z" fill="#05B6C7"/>
</g>
<defs>
<clipPath id="clip0_1033_4">
<rect width="126" height="46" fill="white"/>
</clipPath>
</defs>
</svg>
