<svg width="33" height="32" viewBox="0 0 33 32" fill="none" xmlns="http://www.w3.org/2000/svg">
<g id="Group 3272">
<g id="Group">
<path id="Vector" d="M15.6159 0C16.3655 0 17.1151 0 17.8644 0C17.944 0.0198308 18.0226 0.0511426 18.1032 0.0574049C20.503 0.25119 22.7314 0.977971 24.8144 2.18139C30.4974 5.46425 33.6478 12.1691 32.5244 18.6277C31.8993 22.2223 30.2759 25.2943 27.5802 27.752C23.8721 31.1323 19.4867 32.4853 14.5217 31.8465C11.4144 31.4468 8.66309 30.1741 6.29741 28.1128C3.45399 25.6349 1.67381 22.5379 0.999294 18.818C0.897768 18.2572 0.832403 17.6898 0.75 17.1255C0.75 16.3754 0.75 15.6253 0.75 14.8755C0.796243 14.5161 0.837271 14.1561 0.889772 13.7974C1.34177 10.6961 2.56321 7.93719 4.61875 5.56897C7.10509 2.70464 10.2159 0.913608 13.9577 0.246667C14.5074 0.148209 15.063 0.0814106 15.6159 0ZM18.4913 14.553C20.7686 11.903 23.0276 9.27489 25.3373 6.5873C24.8436 6.5873 24.4392 6.60157 24.0362 6.58173C23.8029 6.57025 23.6513 6.65236 23.5036 6.82527C22.037 8.54255 20.5639 10.2543 19.0917 11.967C18.6561 12.4739 18.218 12.9787 17.7719 13.4954C17.7246 13.4303 17.6996 13.3973 17.6763 13.3635C16.1802 11.187 14.6823 9.01153 13.1914 6.83119C13.0739 6.65932 12.9539 6.58104 12.7377 6.58243C11.114 6.59182 9.4906 6.5873 7.86688 6.58834C7.78031 6.58834 7.69373 6.60191 7.56196 6.6127C9.96693 10.1158 12.342 13.575 14.7237 17.0444C12.3378 19.82 9.96867 22.5765 7.555 25.3845C8.05672 25.3845 8.48195 25.3737 8.90613 25.3893C9.10431 25.3966 9.22983 25.3281 9.35639 25.1802C10.9738 23.2904 12.5969 21.4058 14.2192 19.5201C14.6229 19.0508 15.0283 18.5832 15.4445 18.1017C15.4997 18.1789 15.5303 18.2203 15.5595 18.2628C17.1377 20.5597 18.7173 22.8552 20.2902 25.1559C20.4015 25.3184 20.511 25.3911 20.7158 25.3897C22.3499 25.3803 23.9837 25.3848 25.6179 25.3834C25.7031 25.3834 25.7879 25.3691 25.9106 25.3584C23.424 21.7366 20.9647 18.1553 18.4913 14.553Z" fill="#05B6C7"/>
<path id="Vector_2" d="M9.76855 7.81379C10.5766 7.81379 11.3255 7.80439 12.0737 7.82388C12.186 7.82701 12.3283 7.94286 12.4006 8.04619C15.2944 12.1755 18.1813 16.3094 21.0695 20.4425C21.8793 21.6014 22.6891 22.7606 23.4982 23.9199C23.5562 24.003 23.6087 24.09 23.7002 24.2309C23.22 24.2309 22.7802 24.1766 22.3591 24.2424C21.5097 24.3753 21.0372 24.0107 20.5584 23.3159C17.0492 18.2218 13.4899 13.1622 9.94657 8.09142C9.89477 8.01697 9.84852 7.93869 9.76855 7.81344V7.81379Z" fill="#05B6C7"/>
</g>
</g>
</svg>
