<svg width="33" height="32" viewBox="0 0 33 32" fill="none" xmlns="http://www.w3.org/2000/svg">
<g id="YouTube">
<path id="Vector" d="M14.7578 18.9976L19.9624 16L14.7578 13.0024V18.9976Z" fill="#05B6C7"/>
<path id="Vector_2" d="M16.75 0C7.91479 0 0.75 7.16479 0.75 16C0.75 24.8352 7.91479 32 16.75 32C25.5852 32 32.75 24.8352 32.75 16C32.75 7.16479 25.5852 0 16.75 0ZM26.7476 16.0164C26.7476 16.0164 26.7476 19.2612 26.3359 20.8259C26.1052 21.6824 25.4299 22.3577 24.5735 22.5881C23.0088 23 16.75 23 16.75 23C16.75 23 10.5076 23 8.92651 22.5718C8.07007 22.3413 7.39478 21.6658 7.16406 20.8093C6.7522 19.2612 6.7522 16 6.7522 16C6.7522 16 6.7522 12.7554 7.16406 11.1907C7.39453 10.3342 8.08643 9.64233 8.92651 9.41187C10.4912 9 16.75 9 16.75 9C16.75 9 23.0088 9 24.5735 9.42822C25.4299 9.65869 26.1052 10.3342 26.3359 11.1907C26.7642 12.7554 26.7476 16.0164 26.7476 16.0164Z" fill="#05B6C7"/>
</g>
</svg>
